<svg width="149" height="99" viewBox="0 0 149 99" fill="none" xmlns="http://www.w3.org/2000/svg">
<path fill-rule="evenodd" clip-rule="evenodd" d="M50.5071 71.9941L50.4514 72.6798L49.0447 78.2862L48.9907 79.4717L49.0447 80.674L48.8978 81.3596L48.1565 81.488L0.88827 81.8223L0.776816 81.8038L0.722778 81.6923L0.75993 81.5809L0.852808 81.5065L49.8046 71.9941H50.5071Z" fill="#085B91"/>
<path fill-rule="evenodd" clip-rule="evenodd" d="M148.118 80.4716L148.063 80.6185L147.895 80.6742L100.702 81.044L100.109 81.0086L99.8133 80.7502L99.663 80.1558L98.5164 73.5479L98.3492 72.4756L98.3695 71.866L98.5924 71.6431L99.0906 71.6802L147.931 80.2486L148.081 80.3229L148.118 80.4716Z" fill="#085B91"/>
<path fill-rule="evenodd" clip-rule="evenodd" d="M63.5557 57.522L63.4645 57.8902L63.0187 58.3174L62.2233 58.9084L56.9495 62.5915L56.377 63.0542L55.7826 63.6486L55.173 64.3494L54.56 65.1448L53.9673 65.9976L53.3931 66.8672L52.8764 67.7167L52.4322 68.5509L52.0438 69.3294L51.7652 70.0133L51.3785 70.66L50.8972 70.9387L50.3974 70.7546L49.8046 70.0859L17.5253 24.9657L17.0085 24.1146L17.9154 24.6702L62.8346 56.7621L63.3513 57.1877L63.5557 57.522Z" fill="#085B91"/>
<path fill-rule="evenodd" clip-rule="evenodd" d="M45.9711 69.8815L45.6772 70.0707L44.6015 70.1247L3.3299 71.013L3.16441 70.9589L3.0918 70.7917L3.11037 70.6229L3.27586 70.5334L27.9848 63.8326L28.7616 63.5912L29.1129 63.3328L29.0926 62.9444L28.7616 62.3331L15.2301 40.5287L15.1947 40.402L15.2673 40.2906L15.3804 40.2551L15.4919 40.3092L45.6232 69.4408L45.9711 69.8815Z" fill="#085B91"/>
<path fill-rule="evenodd" clip-rule="evenodd" d="M25.1885 62.0004L24.7985 62.1304L23.8764 62.019L22.7095 61.8163L21.5241 61.7218L20.3403 61.6863L19.1363 61.7404L17.9356 61.8704L16.7316 62.0747L15.509 62.3331L14.3083 62.6641L13.1228 63.0373L11.9391 63.4814L10.7519 63.9424L9.60697 64.4591L8.47724 65.0181L7.36777 65.6091L6.2718 66.239L5.21806 66.8672L4.20316 67.5343L3.22034 68.1996L2.27636 68.8852L1.37122 69.5691L0.408664 70.2547L0 70.4017L0.0743025 69.9592L0.574155 68.8852L1.20404 67.7741L1.96057 66.6274L2.81336 65.5348L3.68304 64.6094L11.0508 57.8344L11.679 57.1876L11.9391 56.6152L11.9559 55.8012L11.4392 43.955L11.6402 42.1769L12.0302 40.402L12.3089 39.4952L12.6247 39.198L12.9185 39.5138L13.1228 40.402L13.2343 41.1974L13.3626 41.9928L13.5129 42.7882L13.6784 43.5852L13.8625 44.362L14.0651 45.1405L14.288 45.9173L14.5464 46.6772L14.8065 47.4338L15.0851 48.1937L15.3806 48.935L15.6947 49.673L16.0291 50.3974L16.3803 51.1168L16.7501 51.8379L17.1402 52.5437L17.5455 53.2277L17.9525 53.9116L18.3983 54.5972L18.8391 55.2608L19.8388 56.6152L20.673 57.5592L21.3974 58.2448L22.0813 58.7784L22.7653 59.2985L23.5049 59.9284L24.3746 60.7795L25.0416 61.5918L25.1885 62.0004Z" fill="#085B91"/>
<path fill-rule="evenodd" clip-rule="evenodd" d="M145.34 69.4763L145.248 69.6604L145.064 69.7178H103.235L102.495 69.6604L102.422 69.3851L102.976 68.7738L133.199 38.8282L133.329 38.7539L133.476 38.8113L133.572 38.9397L133.533 39.1052L119.617 61.7404L119.208 62.4817L119.265 62.8499L119.818 63.0542L145.119 69.1825L145.302 69.2905L145.34 69.4763Z" fill="#085B91"/>
<path fill-rule="evenodd" clip-rule="evenodd" d="M83.5632 57.0761L83.2846 57.2805L82.5264 57.1335L78.9717 56.149L78.1949 55.9666L77.3438 55.8349L76.4386 55.764L75.4929 55.7083H74.5287L73.5712 55.764L72.6256 55.8349L71.7187 55.9295L70.8457 56.0764L70.0706 56.2453L65.9062 57.245L65.1294 57.3531L64.8491 57.1133L64.9065 56.3736L73.8836 2.51615L74.142 1.01828L74.3463 0.184067L74.4932 0L74.6402 0.386711L74.8073 1.33238L83.5244 56.3922L83.5632 57.0761Z" fill="#085B91"/>
<path fill-rule="evenodd" clip-rule="evenodd" d="M63.3326 10.4548L63.1502 52.2483L63.0928 53.0234L62.8496 53.1534L62.316 52.6907L35.2564 25.523L33.9072 24.1518L33.1861 23.3379L33.0375 23.0407L33.4445 23.2078L34.3884 23.7449L55.2269 36.1635L55.7639 36.4236L56.0966 36.3678L56.3566 35.9406L56.615 35.0709L62.7601 10.4008L62.8716 10.2167L63.0742 10.1813L63.2769 10.2708L63.3326 10.4548Z" fill="#085B91"/>
<path fill-rule="evenodd" clip-rule="evenodd" d="M116.506 22.0612L116.413 22.2267L86.0608 52.5438L85.5626 52.9676L85.3397 52.895L85.3009 52.2482L85.6167 12.5656L85.6353 10.7706L85.691 9.77086L85.7822 9.47534L85.9494 9.84517L86.2077 10.8263L92.0219 35.0911L92.2431 35.7936L92.5184 36.0891L93.0013 35.9979L93.7967 35.5707L116.099 21.818L116.285 21.7825L116.432 21.8754L116.506 22.0612Z" fill="#085B91"/>
<path fill-rule="evenodd" clip-rule="evenodd" d="M62.4089 6.84619V7.19744L61.9817 7.77159L61.1677 8.68011L60.3909 9.65955L59.6344 10.6778L58.9285 11.7704L58.2615 12.9187L57.635 14.1025L57.0406 15.3234L56.5036 16.5815L56.0223 17.8615L55.5967 19.1551L55.2083 20.4874L54.8942 21.8181L54.6511 23.1522L54.4501 24.4863L54.3387 25.8001L54.2813 27.1139L54.3015 28.4074L54.3927 29.6672L54.5599 30.9067L54.8183 32.1107L54.8402 32.6089L54.6156 32.8875L54.2272 32.5903L53.4318 31.5754L53.0806 31.0924L52.6922 30.5909L52.2852 30.0927L51.8411 29.6115L51.3784 29.1133L50.8768 28.6117L50.3787 28.1288L49.8417 27.6695L49.303 27.1865L48.7508 26.7441L48.1766 26.2982L47.6008 25.8913L47.0097 25.486L46.4187 25.1145L45.8243 24.7615L45.2332 24.4474L44.6405 24.1519L44.0292 23.8935L43.455 23.6706L42.864 23.4866L31.8149 20.322L31.6106 20.1902L31.5565 19.9504L31.6494 19.7495L31.852 19.6363L37.4771 18.8967L38.6625 18.7852H39.848L41.0503 18.8393L42.2358 18.9322L43.4196 19.0622L44.6017 19.1753L45.7871 19.2463L46.9709 19.2834L48.1564 19.2294L49.0277 18.9879L49.7302 18.434L50.4344 17.7298L51.12 16.9885L51.7837 16.2691L52.4507 15.5075L53.1194 14.7662L53.7645 14.0282L54.4315 13.27L55.0969 12.5472L55.7639 11.8076L56.4664 11.1034L57.1706 10.4009L57.8934 9.73386L58.6499 9.0854L59.4301 8.47578L60.244 7.88136L61.0934 7.32916L62.002 6.86646L62.4089 6.84619Z" fill="#085B91"/>
<path fill-rule="evenodd" clip-rule="evenodd" d="M117.746 19.4485L117.394 19.8217L116.266 20.0615L115.582 20.1544L114.858 20.2827L114.063 20.433L113.228 20.6171L112.36 20.8181L111.472 21.0427L110.565 21.2825L109.64 21.5594L108.698 21.838L107.771 22.1538L106.845 22.4865L105.938 22.8377L105.05 23.189L104.197 23.5791L103.387 23.9641L102.625 24.3728L101.904 24.8017L101.256 25.2255L100.663 25.6697L100.165 26.1138L95.3333 30.8134L94.7608 31.3319L94.445 31.4433L94.2964 31.1275L94.2795 30.3322V23.8172L94.2424 23.0758L94.1478 22.3007L94.0195 21.5037L93.8151 20.71L93.5939 19.8758L93.317 19.0432L93.0012 18.1905L92.65 17.3394L92.2599 16.4916L91.8731 15.6574L91.4493 14.8232L91.0018 13.9907L90.0781 12.3999L89.6154 11.64L88.6883 10.1962L88.2273 9.52915L87.7814 8.90265L87.339 8.32849L86.7091 7.38451L86.5791 6.97754H86.9861L87.8929 7.38451L89.4853 8.34707L90.9275 9.38224L98.9217 18.1195L99.4436 18.6177L99.9974 18.8035H100.867L111.528 18.2124L113.249 18.3222L115.099 18.6363L116.857 18.8761L117.524 19.0618L117.746 19.4485Z" fill="#085B91"/>
<path d="M90.7213 75.1185L86.02 79.8198C86.0621 80.2265 86.083 80.6352 86.0825 81.0441C86.0825 84.1944 84.831 87.2157 82.6034 89.4433C80.3758 91.6709 77.3546 92.9223 74.2042 92.9223C71.0539 92.9223 68.0326 91.6709 65.805 89.4433C63.5774 87.2157 62.326 84.1944 62.326 81.0441C62.326 80.7435 62.3378 80.4463 62.3581 80.1508L57.5943 75.387C56.692 78.039 56.4378 80.8685 56.853 83.6389C57.2682 86.4093 58.3407 89.04 59.9808 91.311C61.621 93.582 63.781 95.4273 66.2804 96.6925C68.7797 97.9577 71.5457 98.606 74.3469 98.5833C77.1481 98.5606 79.9032 97.8675 82.3817 96.562C84.8602 95.2564 86.9901 93.3764 88.5932 91.0791C90.1963 88.7818 91.2261 86.1341 91.5963 83.3573C91.9665 80.5806 91.6665 77.7555 90.7213 75.1185V75.1185ZM74.2042 69.1658H74.2346L79.1825 64.218C75.8379 63.2308 72.2752 63.2602 68.9473 64.3024L73.8192 69.1726C73.9459 69.1692 74.0759 69.1658 74.2042 69.1658Z" fill="#063651"/>
<path d="M129.026 33.605L74.0238 88.6108L55.1223 69.7093C57.0883 66.4104 59.8743 63.6762 63.2095 61.7724L74.0171 72.58L84.97 61.6373L121.013 25.5922C123.891 28.0479 126.57 30.7272 129.026 33.605V33.605Z" fill="#085B91"/>
</svg>
