<svg width="215" height="41" viewBox="0 0 215 41" fill="none" xmlns="http://www.w3.org/2000/svg">
<path fill-rule="evenodd" clip-rule="evenodd" d="M21.0055 29.9417L20.9823 30.2268L20.3973 32.5585L20.3748 33.0515L20.3973 33.5515L20.3362 33.8367L20.0279 33.89L0.369486 34.0291L0.323133 34.0214L0.300659 33.975L0.31611 33.9287L0.354737 33.8978L20.7134 29.9417H21.0055Z" fill="#085B91"/>
<path fill-rule="evenodd" clip-rule="evenodd" d="M61.6011 33.4673L61.5779 33.5284L61.5084 33.5516L41.8809 33.7054L41.6344 33.6907L41.5115 33.5832L41.449 33.336L40.9721 30.5879L40.9026 30.1419L40.911 29.8884L41.0037 29.7957L41.2109 29.8111L61.5232 33.3746L61.5857 33.4055L61.6011 33.4673Z" fill="#085B91"/>
<path fill-rule="evenodd" clip-rule="evenodd" d="M26.4323 23.9229L26.3943 24.076L26.2089 24.2537L25.8781 24.4995L23.6848 26.0312L23.4467 26.2237L23.1995 26.4709L22.946 26.7623L22.691 27.0931L22.4445 27.4478L22.2057 27.8095L21.9908 28.1627L21.8061 28.5097L21.6446 28.8335L21.5287 29.1179L21.3679 29.3869L21.1677 29.5028L20.9598 29.4262L20.7133 29.1481L7.28864 10.383L7.07373 10.0291L7.45087 10.2601L26.1324 23.6068L26.3473 23.7838L26.4323 23.9229Z" fill="#085B91"/>
<path fill-rule="evenodd" clip-rule="evenodd" d="M19.119 29.0631L18.9968 29.1417L18.5494 29.1642L1.38491 29.5336L1.31609 29.5111L1.28589 29.4416L1.29361 29.3714L1.36244 29.3341L11.6387 26.5474L11.9617 26.4469L12.1078 26.3395L12.0994 26.178L11.9617 25.9237L6.33411 16.8555L6.31936 16.8028L6.34956 16.7564L6.39661 16.7417L6.44296 16.7642L18.9743 28.8798L19.119 29.0631Z" fill="#085B91"/>
<path fill-rule="evenodd" clip-rule="evenodd" d="M10.4757 25.7854L10.3135 25.8395L9.92999 25.7932L9.44469 25.7089L8.95167 25.6696L8.45935 25.6548L7.9586 25.6773L7.45925 25.7314L6.95851 25.8163L6.45003 25.9238L5.95069 26.0615L5.45767 26.2167L4.96534 26.4014L4.47162 26.5931L3.99545 26.808L3.52561 27.0405L3.06419 27.2863L2.60839 27.5482L2.17014 27.8095L1.74805 28.0869L1.33931 28.3636L0.946716 28.6488L0.570277 28.9332L0.169959 29.2183L0 29.2794L0.0309017 29.0954L0.238786 28.6488L0.500748 28.1866L0.815384 27.7098L1.17005 27.2554L1.53174 26.8705L4.59593 24.0528L4.85719 23.7839L4.96534 23.5458L4.97237 23.2073L4.75746 18.2805L4.84104 17.541L5.00327 16.8029L5.11915 16.4257L5.25048 16.3021L5.37269 16.4335L5.45767 16.8029L5.50402 17.1337L5.55739 17.4645L5.6199 17.7952L5.68873 18.1267L5.76528 18.4498L5.84956 18.7736L5.94226 19.0966L6.04972 19.4127L6.15787 19.7273L6.27375 20.0433L6.39666 20.3517L6.52729 20.6586L6.66634 20.9599L6.81243 21.259L6.96623 21.5589L7.12847 21.8525L7.29702 22.1369L7.46628 22.4214L7.65169 22.7065L7.83499 22.9825L8.25076 23.5458L8.5977 23.9384L8.89899 24.2235L9.18343 24.4454L9.46787 24.6617L9.77548 24.9237L10.1372 25.2777L10.4146 25.6155L10.4757 25.7854Z" fill="#085B91"/>
<path fill-rule="evenodd" clip-rule="evenodd" d="M60.4459 28.8946L60.4073 28.9711L60.3308 28.995H42.9345L42.6269 28.9711L42.5967 28.8567L42.827 28.6024L55.3963 16.1483L55.4504 16.1174L55.5115 16.1413L55.5515 16.1947L55.5354 16.2635L49.7476 25.6773L49.5777 25.9856L49.6015 26.1387L49.8312 26.2237L60.3539 28.7724L60.4298 28.8173L60.4459 28.8946Z" fill="#085B91"/>
<path fill-rule="evenodd" clip-rule="evenodd" d="M34.7532 23.7374L34.6374 23.8224L34.322 23.7613L32.8436 23.3519L32.5206 23.276L32.1666 23.2212L31.7902 23.1917L31.3969 23.1686H30.9959L30.5977 23.1917L30.2044 23.2212L29.8272 23.2606L29.4641 23.3217L29.1418 23.3919L27.4099 23.8077L27.0868 23.8526L26.9702 23.7529L26.9941 23.4453L30.7276 1.04644L30.835 0.423494L30.92 0.076552L30.9811 0L31.0422 0.160829L31.1117 0.554124L34.7371 23.453L34.7532 23.7374Z" fill="#085B91"/>
<path fill-rule="evenodd" clip-rule="evenodd" d="M26.3395 4.34815L26.2636 21.7297L26.2397 22.052L26.1386 22.1061L25.9167 21.9137L14.6628 10.6149L14.1017 10.0446L13.8018 9.70609L13.74 9.58248L13.9092 9.65201L14.3018 9.87534L22.9684 15.0401L23.1917 15.1483L23.3301 15.1251L23.4382 14.9474L23.5457 14.5857L26.1014 4.32568L26.1477 4.24912L26.232 4.23438L26.3163 4.2716L26.3395 4.34815Z" fill="#085B91"/>
<path fill-rule="evenodd" clip-rule="evenodd" d="M48.4539 9.175L48.4152 9.24383L35.7919 21.8524L35.5847 22.0287L35.492 21.9985L35.4758 21.7295L35.6072 5.2259L35.6149 4.47935L35.6381 4.06358L35.676 3.94067L35.7455 4.09448L35.853 4.50252L38.271 14.594L38.363 14.8862L38.4775 15.0091L38.6784 14.9712L39.0092 14.7935L48.2846 9.07387L48.3618 9.05912L48.4229 9.09775L48.4539 9.175Z" fill="#085B91"/>
<path fill-rule="evenodd" clip-rule="evenodd" d="M25.9554 2.84729V2.99337L25.7777 3.23216L25.4392 3.61L25.1161 4.01734L24.8015 4.44084L24.5079 4.89523L24.2305 5.3728L23.9699 5.86512L23.7227 6.3729L23.4994 6.89612L23.2992 7.42847L23.1223 7.96644L22.9607 8.52057L22.8301 9.07399L22.729 9.62881L22.6454 10.1836L22.599 10.73L22.5752 11.2764L22.5836 11.8144L22.6215 12.3383L22.691 12.8538L22.7985 13.3546L22.8076 13.5618L22.7142 13.6776L22.5527 13.554L22.2219 13.1319L22.0758 12.9311L21.9143 12.7225L21.745 12.5153L21.5603 12.3152L21.3679 12.108L21.1593 11.8994L20.9521 11.6985L20.7288 11.5075L20.5047 11.3066L20.2751 11.1226L20.0363 10.9372L19.7968 10.768L19.551 10.5994L19.3052 10.4449L19.058 10.2981L18.8122 10.1675L18.5657 10.0446L18.3114 9.93713L18.0726 9.84442L17.8268 9.76787L13.2316 8.45174L13.1466 8.39696L13.1241 8.29723L13.1628 8.21365L13.2471 8.1666L15.5865 7.85899L16.0795 7.81263H16.5725L17.0725 7.83511L17.5656 7.87374L18.0579 7.92781L18.5495 7.97487L19.0425 8.00437L19.5348 8.01982L20.0279 7.99734L20.3903 7.89691L20.6824 7.66655L20.9753 7.37369L21.2604 7.06537L21.5364 6.76619L21.8139 6.44945L22.092 6.14113L22.3602 5.83422L22.6377 5.51888L22.9144 5.21829L23.1918 4.91068L23.4839 4.61782L23.7768 4.32566L24.0774 4.04824L24.392 3.77856L24.7165 3.52502L25.055 3.27781L25.4083 3.04815L25.7861 2.85572L25.9554 2.84729Z" fill="#085B91"/>
<path fill-rule="evenodd" clip-rule="evenodd" d="M48.9694 8.08867L48.8234 8.24388L48.3542 8.34361L48.0698 8.38224L47.7685 8.43561L47.4377 8.49812L47.0908 8.57467L46.7298 8.65825L46.3603 8.75166L45.9832 8.85138L45.5983 8.96656L45.2064 9.08244L44.8209 9.21378L44.436 9.35213L44.0589 9.49821L43.6895 9.64429L43.3348 9.80653L42.9977 9.96665L42.6809 10.1366L42.381 10.315L42.1114 10.4913L41.8648 10.676L41.6577 10.8607L39.6484 12.8152L39.4103 13.0308L39.2789 13.0772L39.2171 12.9459L39.2101 12.6151V9.90555L39.1947 9.59724L39.1553 9.27488L39.102 8.94339L39.017 8.6133L38.925 8.26636L38.8098 7.92012L38.6785 7.56545L38.5324 7.21148L38.3701 6.85892L38.2093 6.51198L38.033 6.16504L37.8469 5.8188L37.4628 5.15722L37.2703 4.84118L36.8848 4.24071L36.693 3.96329L36.5076 3.70274L36.3236 3.46395L36.0616 3.07136L36.0076 2.9021H36.1768L36.554 3.07136L37.2162 3.47167L37.816 3.90219L41.1408 7.53595L41.3578 7.74313L41.5881 7.82039H41.9498L46.3835 7.57458L47.0992 7.62023L47.8689 7.75086L48.6 7.85059L48.8774 7.92784L48.9694 8.08867Z" fill="#085B91"/>
<path d="M37.7304 31.2411L35.7751 33.1963C35.7926 33.3655 35.8013 33.5354 35.8011 33.7055C35.8011 35.0157 35.2806 36.2722 34.3542 37.1986C33.4278 38.1251 32.1712 38.6455 30.861 38.6455C29.5509 38.6455 28.2943 38.1251 27.3679 37.1986C26.4414 36.2722 25.921 35.0157 25.921 33.7055C25.921 33.5805 25.9259 33.4569 25.9343 33.334L23.9531 31.3527C23.5778 32.4557 23.4721 33.6325 23.6448 34.7846C23.8175 35.9368 24.2635 37.0309 24.9457 37.9754C25.6278 38.9199 26.5261 39.6873 27.5656 40.2135C28.605 40.7397 29.7554 41.0093 30.9204 40.9999C32.0854 40.9904 33.2312 40.7022 34.262 40.1592C35.2928 39.6163 36.1786 38.8344 36.8453 37.879C37.512 36.9235 37.9403 35.8224 38.0942 34.6675C38.2482 33.5127 38.1234 32.3378 37.7304 31.2411ZM30.861 28.7654H30.8737L32.9315 26.7076C31.5404 26.2971 30.0588 26.3093 28.6747 26.7428L30.7009 28.7682C30.7536 28.7668 30.8077 28.7654 30.861 28.7654Z" fill="#063651"/>
<path d="M53.6609 13.976L30.7859 36.8524L22.9249 28.9915C23.7426 27.6195 24.9012 26.4824 26.2883 25.6906L30.7831 30.1854L35.3383 25.6344L50.3284 10.6436C51.5253 11.6649 52.6396 12.7792 53.6609 13.976Z" fill="#085B91"/>
<path d="M74.1101 11.4369V29.0938H76.964V29.3564H71.4216V29.0938H73.835V11.7037H71.4216V11.441L74.1101 11.4369ZM88.241 11.4369V11.7037H85.72V29.5984H85.3623L73.9177 11.4369H76.6662L85.445 25.6877V11.7037H82.6386V11.441L88.241 11.4369Z" fill="#063651"/>
<path d="M105.203 11.4369V11.7037H102.899V23.8637C102.899 25.8325 102.471 27.298 101.615 28.2603C100.759 29.2227 99.3849 29.7011 97.4933 29.6956C95.4253 29.6956 93.9142 29.2378 92.9602 28.3224C92.0061 27.4069 91.5236 25.9173 91.5125 23.8534V11.7037H89.3866V11.441H96.1966V11.7037H93.8081V23.6259C93.8049 24.3697 93.8623 25.1125 93.9797 25.847C94.0767 26.4882 94.2868 27.1072 94.6001 27.6751C94.8972 28.1993 95.3358 28.6293 95.8657 28.9159C96.5196 29.2419 97.2451 29.3977 97.9751 29.3688C98.8696 29.3999 99.7567 29.1982 100.55 28.7836C101.256 28.3741 101.805 27.7389 102.107 26.9802C102.459 26.1668 102.634 25.1273 102.634 23.8616V11.7037H100.413V11.441L105.203 11.4369Z" fill="#063651"/>
<path d="M113.004 29.6956C112.083 29.722 111.167 29.555 110.315 29.2055C109.613 28.9051 108.986 28.4523 108.481 27.8799L107.273 29.5881H107.035V24.6848H107.31C107.428 25.3385 107.632 25.9735 107.918 26.5729C108.188 27.1338 108.557 27.6416 109.006 28.0722C109.469 28.5084 110.015 28.8455 110.613 29.0628C111.312 29.3102 112.051 29.4293 112.793 29.4143C113.551 29.432 114.304 29.2816 114.997 28.9739C115.601 28.6963 116.109 28.2448 116.455 27.6772C116.818 27.0437 116.997 26.3221 116.974 25.5926C116.994 24.9591 116.812 24.3357 116.455 23.812C116.085 23.3047 115.618 22.8765 115.08 22.5526C114.476 22.1804 113.848 21.8487 113.2 21.5599C112.511 21.2539 111.828 20.9354 111.151 20.6045C110.487 20.2863 109.859 19.9003 109.275 19.4526C108.714 19.0242 108.247 18.4859 107.902 17.8706C107.536 17.1775 107.357 16.4016 107.381 15.6185C107.365 14.7968 107.601 13.9899 108.057 13.3064C108.508 12.6387 109.128 12.1028 109.854 11.7533C110.627 11.3775 111.477 11.1876 112.336 11.1991C113.081 11.1885 113.822 11.3154 114.522 11.5734C115.171 11.8223 115.753 12.2221 116.217 12.7398L117.413 11.1991H117.65V16.1086H117.388C117.276 15.1887 116.966 14.304 116.48 13.5153C116.07 12.8707 115.493 12.3502 114.809 12.0098C114.111 11.6768 113.346 11.509 112.573 11.5196C111.428 11.5196 110.56 11.7954 109.97 12.3469C109.674 12.6305 109.443 12.9739 109.291 13.354C109.138 13.7341 109.069 14.1423 109.087 14.5514C109.07 15.1288 109.248 15.695 109.593 16.1582C109.963 16.6265 110.42 17.0196 110.938 17.3163C111.534 17.6666 112.149 17.9815 112.782 18.2594C113.457 18.5585 114.128 18.8832 114.797 19.2334C115.452 19.5744 116.068 19.9849 116.635 20.4577C117.195 20.9263 117.654 21.5031 117.986 22.1535C118.348 22.964 118.523 23.846 118.496 24.7336C118.469 25.6211 118.241 26.491 117.83 27.2781C117.384 28.047 116.722 28.6682 115.926 29.0648C115.016 29.5049 114.014 29.7212 113.004 29.6956Z" fill="#063651"/>
<path d="M123.445 29.3563V29.0936H126.074V11.7035H123.683C123.087 11.6802 122.496 11.8075 121.962 12.0737C121.524 12.317 121.165 12.6818 120.928 13.1243C120.664 13.6301 120.491 14.1781 120.415 14.7435C120.315 15.4282 120.266 16.1196 120.271 16.8116H119.996V11.4347H134.426V16.8116H134.151C134.155 16.1196 134.108 15.4284 134.009 14.7435C133.932 14.1775 133.756 13.6293 133.49 13.1243C133.251 12.6832 132.893 12.3189 132.456 12.0737C131.925 11.8068 131.335 11.6794 130.741 11.7035H128.342V29.0978H130.971V29.3604L123.445 29.3563Z" fill="#063651"/>
<path d="M148.625 11.4369C150.058 11.4369 151.23 11.6437 152.141 12.0573C152.989 12.4154 153.701 13.0349 154.172 13.8255C154.625 14.6476 154.852 15.5754 154.83 16.5139C154.857 17.4412 154.629 18.3581 154.172 19.1651C153.694 19.931 152.982 20.5222 152.141 20.8506C151.224 21.2394 150.052 21.4345 148.625 21.4358H146.009V29.0876H148.148V29.3502H141.578V29.0876H143.728V11.7037H141.578V11.441L148.625 11.4369ZM146.009 21.1732H148.625C149.16 21.1822 149.687 21.0387 150.143 20.7596C150.594 20.475 150.979 20.0978 151.273 19.6532C151.582 19.1903 151.817 18.6824 151.972 18.1477C152.128 17.6227 152.208 17.0781 152.209 16.5305C152.207 15.9706 152.127 15.4139 151.972 14.876C151.818 14.3224 151.582 13.7948 151.273 13.3105C150.98 12.8488 150.596 12.4525 150.143 12.1462C149.695 11.8459 149.165 11.6894 148.625 11.6975H146.009V21.1732Z" fill="#063651"/>
<path d="M164.777 29.5941C163.657 29.6139 162.549 29.3702 161.54 28.8827C160.598 28.4154 159.775 27.7393 159.133 26.9057C158.458 26.0291 157.952 25.0347 157.64 23.9732C157.294 22.8125 157.122 21.6067 157.131 20.3955C157.122 19.1821 157.304 17.9749 157.669 16.8178C158.002 15.7545 158.526 14.7608 159.216 13.8853C159.868 13.0574 160.694 12.3825 161.635 11.9083C162.616 11.4412 163.688 11.1989 164.774 11.1989C165.86 11.1989 166.932 11.4412 167.912 11.9083C168.851 12.384 169.674 13.0587 170.325 13.8853C171.015 14.7608 171.539 15.7545 171.872 16.8178C172.237 17.9749 172.419 19.1821 172.41 20.3955C172.419 21.6065 172.248 22.8122 171.903 23.9732C171.59 25.0335 171.086 26.0274 170.414 26.9057C169.776 27.74 168.955 28.4164 168.013 28.8827C167.005 29.3702 165.897 29.6139 164.777 29.5941ZM164.777 29.3439C165.819 29.3439 166.662 29.0847 167.304 28.5663C167.967 28.0173 168.476 27.3043 168.778 26.4982C169.138 25.5712 169.375 24.6015 169.484 23.6133C169.609 22.5432 169.67 21.4667 169.668 20.3893C169.673 19.3152 169.604 18.2421 169.461 17.1776C169.335 16.1832 169.078 15.2098 168.698 14.2824C168.377 13.481 167.864 12.7708 167.205 12.2143C166.498 11.7098 165.651 11.4386 164.782 11.4386C163.913 11.4386 163.066 11.7098 162.359 12.2143C161.696 12.7693 161.181 13.4798 160.86 14.2824C160.48 15.2098 160.223 16.1832 160.097 17.1776C159.946 18.2415 159.869 19.3147 159.867 20.3893C159.867 21.4654 159.931 22.5406 160.058 23.6092C160.167 24.5973 160.404 25.5671 160.763 26.4941C161.067 27.3027 161.58 28.0162 162.25 28.5621C162.899 29.0847 163.741 29.3452 164.777 29.3439Z" fill="#063651"/>
<path d="M174.166 29.3563V29.0937H176.317V11.7036H174.166V11.4409H180.736V11.7036H178.598V29.0978H182.283C183.058 29.1257 183.832 28.9992 184.558 28.7256C185.092 28.5141 185.551 28.1484 185.877 27.675C186.196 27.185 186.407 26.6332 186.497 26.0557C186.61 25.3722 186.664 24.6804 186.659 23.9877H186.934V29.3646L174.166 29.3563Z" fill="#063651"/>
<path d="M188.179 29.3563V29.0937H190.329V11.7036H188.179V11.4409H194.749V11.7036H192.611V29.0978H196.302C197.077 29.1262 197.851 28.9997 198.577 28.7256C199.111 28.5141 199.57 28.1484 199.896 27.675C200.216 27.1854 200.427 26.6334 200.517 26.0557C200.629 25.3722 200.683 24.6804 200.678 23.9877H200.953V29.3646L188.179 29.3563Z" fill="#063651"/>
<path d="M208.754 29.6956C207.833 29.722 206.917 29.555 206.065 29.2055C205.363 28.9051 204.736 28.4523 204.231 27.8799L203.023 29.5881H202.785V24.6848H203.06C203.178 25.3385 203.382 25.9735 203.668 26.5729C203.938 27.1338 204.307 27.6416 204.756 28.0722C205.219 28.5084 205.765 28.8455 206.363 29.0628C207.062 29.3102 207.801 29.4293 208.543 29.4143C209.301 29.432 210.054 29.2816 210.747 28.9739C211.347 28.6946 211.851 28.2433 212.195 27.6772C212.557 27.0437 212.737 26.3221 212.714 25.5926C212.734 24.9591 212.552 24.3357 212.195 23.812C211.825 23.3047 211.357 22.8765 210.819 22.5526C210.216 22.1804 209.588 21.8487 208.94 21.5599C208.25 21.2539 207.567 20.9354 206.89 20.6045C206.227 20.2863 205.598 19.9003 205.014 19.4526C204.454 19.0242 203.987 18.4859 203.641 17.8706C203.277 17.1773 203.098 16.4014 203.122 15.6185C203.105 14.797 203.341 13.9901 203.796 13.3064C204.247 12.6387 204.868 12.1028 205.594 11.7533C206.366 11.3775 207.216 11.1876 208.075 11.1991C208.821 11.1885 209.562 11.3154 210.261 11.5734C210.911 11.8223 211.492 12.2221 211.957 12.7398L213.152 11.1991H213.39V16.1086H213.127C213.016 15.1887 212.706 14.304 212.22 13.5153C211.81 12.8707 211.232 12.3502 210.549 12.0098C209.859 11.6808 209.104 11.5132 208.34 11.5196C207.194 11.5196 206.326 11.7954 205.736 12.3469C205.441 12.6305 205.209 12.9739 205.057 13.354C204.905 13.7341 204.835 14.1423 204.853 14.5514C204.836 15.1288 205.015 15.695 205.36 16.1582C205.73 16.6261 206.187 17.0191 206.704 17.3163C207.3 17.667 207.917 17.9819 208.551 18.2594C209.224 18.5585 209.894 18.8832 210.563 19.2334C211.218 19.5744 211.834 19.9849 212.402 20.4577C212.962 20.9257 213.421 21.5026 213.752 22.1535C214.115 22.964 214.289 23.846 214.262 24.7336C214.235 25.6211 214.008 26.491 213.597 27.2781C213.15 28.047 212.488 28.6682 211.692 29.0648C210.777 29.5075 209.769 29.7238 208.754 29.6956Z" fill="#063651"/>
</svg>
